<?xml version="1.0" encoding="UTF-8"?>
<svg xmlns="http://www.w3.org/2000/svg" xmlns:xlink="http://www.w3.org/1999/xlink" width="48px" height="48px" viewBox="0 0 48 48" version="1.1">
<g id="surface1">
<path style=" stroke:none;fill-rule:nonzero;fill:rgb(9.411765%,46.666667%,94.901961%);fill-opacity:1;" d="M 48 24 C 48 10.746094 37.253906 0 24 0 C 10.746094 0 0 10.746094 0 24 C 0 35.980469 8.777344 45.90625 20.25 47.707031 L 20.25 30.9375 L 14.15625 30.9375 L 14.15625 24 L 20.25 24 L 20.25 18.710938 C 20.25 12.699219 23.832031 9.375 29.316406 9.375 C 31.941406 9.375 34.6875 9.84375 34.6875 9.84375 L 34.6875 15.75 L 31.660156 15.75 C 28.679688 15.75 27.75 17.601562 27.75 19.496094 L 27.75 24 L 34.40625 24 L 33.34375 30.9375 L 27.75 30.9375 L 27.75 47.707031 C 39.222656 45.90625 48 35.980469 48 24 Z M 48 24 "/>
<path style=" stroke:none;fill-rule:nonzero;fill:rgb(100%,100%,100%);fill-opacity:1;" d="M 33.34375 30.9375 L 34.40625 24 L 27.75 24 L 27.75 19.496094 C 27.75 17.601562 28.679688 15.75 31.660156 15.75 L 34.6875 15.75 L 34.6875 9.84375 C 34.6875 9.84375 31.941406 9.375 29.316406 9.375 C 23.832031 9.375 20.25 12.699219 20.25 18.710938 L 20.25 24 L 14.15625 24 L 14.15625 30.9375 L 20.25 30.9375 L 20.25 47.707031 C 22.734375 48.097656 25.265625 48.097656 27.75 47.707031 L 27.75 30.9375 Z M 33.34375 30.9375 "/>
</g>
</svg>
